<?xml version="1.0" standalone="no"?>
<!DOCTYPE svg PUBLIC "-//W3C//DTD SVG 20010904//EN"
 "http://www.w3.org/TR/2001/REC-SVG-20010904/DTD/svg10.dtd">
<svg version="1.0" xmlns="http://www.w3.org/2000/svg"
 width="1600.000000pt" height="1600.000000pt" viewBox="0 0 1600.000000 1600.000000"
 preserveAspectRatio="xMidYMid meet">
<metadata>
Created by potrace 1.11, written by Peter Selinger 2001-2013
</metadata>
<g transform="translate(0.000000,1600.000000) scale(0.100000,-0.100000)"
fill="#000000" stroke="none">
<path d="M7910 13369 c-41 -16 -83 -31 -92 -32 -10 0 -18 -5 -18 -9 0 -4 -3
-7 -7 -6 -5 1 -21 -4 -36 -10 -16 -7 -33 -12 -38 -12 -5 0 -17 -4 -27 -10 -29
-16 -177 -74 -177 -69 -1 2 -13 -4 -28 -14 -15 -9 -27 -15 -27 -13 0 3 -26 -7
-57 -21 -70 -31 -96 -41 -103 -40 -3 1 -18 -6 -35 -15 -16 -9 -68 -33 -115
-54 -155 -68 -185 -80 -249 -110 -36 -16 -175 -84 -310 -150 -135 -67 -250
-122 -255 -122 -5 0 -12 -4 -15 -9 -3 -5 -35 -24 -71 -42 -100 -53 -105 -55
-112 -66 -4 -5 -8 -6 -8 -2 0 5 -13 -1 -29 -12 -16 -12 -31 -21 -34 -21 -10 0
-152 -84 -159 -94 -4 -6 -8 -8 -8 -4 0 4 -25 -8 -55 -27 -30 -19 -56 -35 -59
-35 -3 0 -48 -27 -100 -60 -53 -33 -98 -60 -101 -60 -3 0 -18 -8 -33 -19 -15
-10 -128 -85 -252 -167 -124 -81 -227 -151 -230 -154 -3 -3 -34 -26 -70 -51
-36 -24 -69 -48 -75 -52 -5 -4 -59 -45 -120 -89 -60 -45 -112 -84 -115 -88 -3
-3 -21 -17 -40 -30 -19 -13 -37 -27 -40 -30 -3 -3 -50 -41 -105 -85 -55 -43
-106 -84 -113 -90 -7 -5 -23 -19 -35 -30 -12 -11 -42 -37 -67 -57 -25 -20 -58
-49 -75 -63 -16 -15 -59 -52 -95 -83 -60 -54 -119 -107 -214 -195 -99 -92
-350 -344 -451 -452 -60 -64 -129 -137 -153 -162 -23 -25 -42 -47 -42 -49 0
-3 -10 -15 -22 -28 -36 -36 -193 -220 -241 -281 -4 -5 -25 -30 -47 -55 -22
-25 -40 -48 -40 -51 0 -3 -9 -17 -21 -30 -48 -56 -65 -76 -74 -91 -5 -8 -58
-79 -116 -156 l-106 -140 3 -69 c4 -88 13 -280 18 -363 3 -36 7 -112 11 -170
3 -58 8 -116 10 -130 3 -14 7 -59 10 -100 3 -41 7 -91 10 -110 8 -59 14 -112
20 -175 3 -33 8 -78 10 -100 3 -22 8 -58 10 -80 3 -22 8 -60 11 -85 4 -25 8
-58 9 -75 2 -16 4 -31 5 -32 1 -2 3 -11 4 -20 1 -10 5 -40 10 -68 4 -27 10
-65 13 -84 2 -18 7 -43 9 -55 5 -25 36 -212 40 -241 1 -11 3 -20 4 -20 1 0 3
-11 6 -25 2 -14 7 -41 10 -60 7 -32 12 -65 16 -97 1 -7 5 -13 10 -13 5 0 7 -4
3 -9 -4 -8 23 -140 80 -391 4 -18 29 -117 56 -220 11 -41 21 -83 24 -92 14
-62 59 -219 86 -304 17 -54 32 -106 34 -114 1 -8 5 -22 8 -30 8 -22 91 -274
92 -280 0 -3 6 -18 12 -35 37 -94 86 -232 86 -242 0 -7 4 -13 9 -13 5 0 8 -6
7 -13 -1 -6 3 -25 9 -40 7 -16 12 -33 12 -38 0 -5 5 -9 12 -9 6 0 9 -3 6 -6
-6 -5 41 -131 63 -168 6 -10 12 -26 14 -36 2 -10 17 -49 34 -87 44 -101 54
-127 53 -135 -1 -3 5 -12 13 -18 8 -7 15 -18 15 -25 0 -22 231 -499 313 -645
17 -30 37 -68 45 -85 9 -16 24 -42 34 -58 11 -15 16 -27 13 -27 -3 0 3 -13 14
-29 12 -16 21 -34 21 -40 0 -6 5 -11 10 -11 6 0 10 -4 10 -10 0 -10 189 -331
200 -340 4 -3 15 -21 26 -40 10 -19 22 -39 26 -45 4 -5 60 -89 124 -185 98
-146 227 -331 254 -363 4 -4 17 -9 30 -12 13 -2 93 -24 179 -49 86 -24 194
-53 241 -64 47 -12 132 -33 190 -47 58 -15 116 -28 130 -31 14 -3 34 -8 45
-11 11 -3 29 -8 40 -9 26 -4 60 -12 60 -14 0 -1 13 -3 28 -5 16 -2 59 -11 95
-19 93 -21 253 -53 302 -61 14 -2 41 -7 60 -10 19 -4 49 -9 65 -11 17 -2 41
-6 55 -9 14 -3 70 -12 125 -21 112 -17 126 -19 175 -28 19 -4 58 -9 85 -12 84
-10 128 -15 165 -19 19 -2 35 -4 35 -5 0 -3 29 -6 121 -14 63 -5 158 -15 204
-21 19 -2 76 -7 125 -10 50 -4 110 -8 135 -10 125 -10 234 -16 391 -20 94 -3
174 -7 176 -9 2 -2 20 0 39 4 18 4 34 4 34 0 0 -10 40 -7 58 4 7 4 12 3 12 -3
0 -7 8 -7 25 -1 13 5 26 6 29 1 3 -4 27 -6 53 -4 26 2 54 4 61 4 77 -3 355 5
480 14 42 2 115 7 162 11 47 3 96 7 110 9 14 2 63 7 110 11 112 9 144 12 210
19 30 4 65 8 77 9 12 1 25 5 29 9 4 4 13 2 21 -4 7 -6 13 -8 13 -3 0 5 17 10
37 12 20 1 48 5 62 8 14 3 46 7 71 9 25 3 56 7 70 10 26 6 50 10 110 19 19 3
45 8 56 10 12 2 39 7 60 11 48 7 81 13 114 20 14 3 43 8 65 12 22 3 128 25
235 50 107 24 206 46 220 49 14 2 32 7 40 10 8 3 27 8 43 11 15 2 82 20 150
39 67 20 129 37 138 39 8 2 40 11 70 20 30 9 63 18 74 21 11 2 61 18 110 35
50 17 98 30 107 30 10 0 20 4 23 10 4 5 15 9 25 9 14 0 50 46 127 162 60 90
114 175 122 190 7 16 17 28 22 28 5 0 9 4 9 9 0 13 81 144 95 153 5 4 6 8 1 8
-5 0 -2 8 6 18 8 9 45 69 83 132 37 63 73 124 80 135 7 11 12 24 13 29 0 5 4
12 9 15 4 3 13 15 19 26 6 11 24 43 39 70 63 111 183 334 211 390 16 33 32 62
35 65 8 8 89 180 89 191 0 5 5 9 10 9 6 0 10 4 10 10 0 5 24 60 54 122 89 187
126 268 126 276 0 4 7 21 16 37 15 28 80 181 134 315 12 30 28 69 35 85 32 77
69 181 67 188 -1 4 3 7 10 7 6 0 9 3 5 6 -3 4 0 19 8 34 8 15 11 30 8 34 -4 3
-2 6 4 6 5 0 10 6 10 13 0 7 14 50 31 96 18 45 30 87 27 91 -3 5 -1 10 3 12 6
2 114 315 128 373 2 6 6 21 9 35 8 31 11 41 17 60 8 22 49 168 53 188 2 9 4
18 5 20 2 1 3 5 4 10 1 4 5 17 10 30 4 12 9 32 10 45 2 12 6 29 9 37 5 13 16
58 52 210 2 8 10 44 19 80 8 36 17 76 20 90 2 14 9 44 14 68 6 23 10 45 11 47
1 3 1 6 2 8 0 1 3 13 5 27 3 14 20 110 39 214 19 103 32 192 29 197 -3 5 -1 9
4 9 5 0 8 14 7 30 -1 17 2 33 6 35 4 3 6 16 4 30 -1 14 1 25 4 25 4 0 7 12 8
28 0 28 10 113 13 122 1 3 2 9 1 13 -1 4 3 36 8 70 5 34 13 91 16 127 3 36 8
83 11 105 10 84 16 152 19 210 2 33 6 96 10 140 3 44 8 126 10 182 2 56 6 107
10 113 3 5 1 10 -5 10 -8 0 -7 6 1 21 9 17 8 20 -2 14 -8 -6 -10 -4 -3 6 10
17 12 379 2 379 -5 0 -8 6 -8 13 -1 6 -23 37 -50 67 -28 30 -50 59 -50 64 0 5
-6 14 -14 20 -7 6 -53 61 -102 121 -48 61 -98 121 -110 135 -28 32 -145 168
-170 198 -10 13 -30 36 -44 51 -14 15 -43 47 -64 72 -281 316 -725 761 -995
996 -24 21 -56 49 -71 63 -15 14 -46 41 -70 60 -24 19 -53 44 -64 56 -17 17
-121 103 -210 174 -10 8 -24 21 -31 28 -8 6 -16 12 -19 12 -6 0 -50 37 -82 68
-7 6 -17 12 -22 12 -6 0 -12 3 -14 8 -2 6 -43 39 -103 84 -5 5 -51 39 -102 78
-51 38 -95 70 -98 70 -4 0 -12 6 -19 13 -8 6 -24 19 -36 27 -12 8 -28 21 -36
28 -7 6 -17 12 -22 12 -6 0 -12 4 -14 8 -4 10 -325 225 -458 307 -52 32 -117
73 -145 90 -27 18 -140 82 -250 144 -110 62 -207 116 -215 121 -28 16 -494
248 -575 286 -44 21 -84 36 -89 35 -5 -1 -17 6 -27 15 -11 9 -19 14 -19 11 0
-3 -35 10 -77 29 -101 45 -104 47 -198 84 -44 17 -89 35 -100 40 -27 11 -59
23 -65 24 -3 1 -24 8 -45 18 -103 43 -229 87 -237 82 -4 -3 -8 -1 -8 4 0 5 -6
9 -12 9 -7 1 -67 20 -133 42 -65 23 -124 41 -130 41 -5 -1 -44 -14 -85 -31z"/>
</g>
</svg>
